<?xml version="1.0" encoding="UTF-8" standalone="no"?>
<!-- Created with Inkscape (http://www.inkscape.org/) -->

<svg
   xmlns:dc="http://purl.org/dc/elements/1.1/"
   xmlns:cc="http://creativecommons.org/ns#"
   xmlns:rdf="http://www.w3.org/1999/02/22-rdf-syntax-ns#"
   xmlns:svg="http://www.w3.org/2000/svg"
   xmlns="http://www.w3.org/2000/svg"
   xmlns:sodipodi="http://sodipodi.sourceforge.net/DTD/sodipodi-0.dtd"
   xmlns:inkscape="http://www.inkscape.org/namespaces/inkscape"
   width="744.09448819"
   height="1052.3622047"
   id="svg2"
   version="1.1"
   inkscape:version="0.48.3.1 r9886"
   sodipodi:docname="New document 1">
  <defs
     id="defs4" />
  <sodipodi:namedview
     id="base"
     pagecolor="#ffffff"
     bordercolor="#666666"
     borderopacity="1.0"
     inkscape:pageopacity="0.0"
     inkscape:pageshadow="2"
     inkscape:zoom="0.7"
     inkscape:cx="547.47468"
     inkscape:cy="577.14286"
     inkscape:document-units="px"
     inkscape:current-layer="layer1"
     showgrid="true"
     inkscape:window-width="1920"
     inkscape:window-height="1028"
     inkscape:window-x="1920"
     inkscape:window-y="0"
     inkscape:window-maximized="1">
    <inkscape:grid
       type="xygrid"
       id="grid3838" />
  </sodipodi:namedview>
  <metadata
     id="metadata7">
    <rdf:RDF>
      <cc:Work
         rdf:about="">
        <dc:format>image/svg+xml</dc:format>
        <dc:type
           rdf:resource="http://purl.org/dc/dcmitype/StillImage" />
        <dc:title></dc:title>
      </cc:Work>
    </rdf:RDF>
  </metadata>
  <g
     inkscape:label="Layer 1"
     inkscape:groupmode="layer"
     id="layer1">
    <rect
       style="fill:#ffffff;fill-opacity:0.8627451;stroke:#ffffff;stroke-width:2;stroke-opacity:0.50196078"
       id="rect3879"
       width="1440"
       height="320"
       x="20"
       y="52.362183"
       inkscape:export-filename="/home/dada/dev/SynthQuiz/difficulty_10.png"
       inkscape:export-xdpi="35.738247"
       inkscape:export-ydpi="35.738247" />
    <path
       sodipodi:type="star"
       style="fill:#000000;fill-opacity:1"
       id="path3763"
       sodipodi:sides="5"
       sodipodi:cx="142.85715"
       sodipodi:cy="249.50504"
       sodipodi:r1="74.628334"
       sodipodi:r2="36.567883"
       sodipodi:arg1="-1.5707963"
       sodipodi:arg2="-0.9424778"
       inkscape:flatsided="false"
       inkscape:rounded="0.18"
       inkscape:randomized="0"
       d="m 142.85715,174.8767 c 8.98375,0 14.22605,39.76378 21.49406,45.0443 7.26801,5.28052 46.70557,-2.02145 49.4817,6.52261 2.77613,8.54406 -33.42151,25.81746 -36.19764,34.36152 -2.77613,8.54406 16.35532,43.79498 9.08731,49.0755 -7.26801,5.28052 -34.88168,-23.80771 -43.86543,-23.80771 -8.98376,0 -36.59743,29.08822 -43.865439,23.8077 -7.26801,-5.28051 11.863449,-40.53143 9.087309,-49.07549 -2.77613,-8.54406 -38.973769,-25.81746 -36.197636,-34.36152 2.776133,-8.54406 42.213686,-1.24209 49.481706,-6.52261 7.26801,-5.28052 12.5103,-45.0443 21.49406,-45.0443 z"
       inkscape:transform-center-y="-11.248844"
       transform="matrix(1.7415353,0,0,1.652795,-65.183973,-179.80697)"
       inkscape:export-filename="/home/dada/dev/SynthQuiz/difficulty_10.png"
       inkscape:export-xdpi="35.738247"
       inkscape:export-ydpi="35.738247" />
    <path
       sodipodi:type="star"
       style="fill:#000000;fill-opacity:1"
       id="path3763-31"
       sodipodi:sides="5"
       sodipodi:cx="142.85715"
       sodipodi:cy="249.50504"
       sodipodi:r1="74.628334"
       sodipodi:r2="36.567883"
       sodipodi:arg1="-1.5707963"
       sodipodi:arg2="-0.9424778"
       inkscape:flatsided="false"
       inkscape:rounded="0.18"
       inkscape:randomized="0"
       d="m 142.85715,174.8767 c 8.98375,0 14.22605,39.76378 21.49406,45.0443 7.26801,5.28052 46.70557,-2.02145 49.4817,6.52261 2.77613,8.54406 -33.42151,25.81746 -36.19764,34.36152 -2.77613,8.54406 16.35532,43.79498 9.08731,49.0755 -7.26801,5.28052 -34.88168,-23.80771 -43.86543,-23.80771 -8.98376,0 -36.59743,29.08822 -43.865439,23.8077 -7.26801,-5.28051 11.863449,-40.53143 9.087309,-49.07549 -2.77613,-8.54406 -38.973769,-25.81746 -36.197636,-34.36152 2.776133,-8.54406 42.213686,-1.24209 49.481706,-6.52261 7.26801,-5.28052 12.5103,-45.0443 21.49406,-45.0443 z"
       inkscape:transform-center-y="-11.248848"
       transform="matrix(1.7415353,0,0,1.652795,207.60244,-179.80697)"
       inkscape:export-filename="/home/dada/dev/SynthQuiz/difficulty_10.png"
       inkscape:export-xdpi="35.738247"
       inkscape:export-ydpi="35.738247" />
    <path
       sodipodi:type="star"
       style="fill:#000000;fill-opacity:1"
       id="path3763-91"
       sodipodi:sides="5"
       sodipodi:cx="142.85715"
       sodipodi:cy="249.50504"
       sodipodi:r1="74.628334"
       sodipodi:r2="36.567883"
       sodipodi:arg1="-1.5707963"
       sodipodi:arg2="-0.9424778"
       inkscape:flatsided="false"
       inkscape:rounded="0.18"
       inkscape:randomized="0"
       d="m 142.85715,174.8767 c 8.98375,0 14.22605,39.76378 21.49406,45.0443 7.26801,5.28052 46.70557,-2.02145 49.4817,6.52261 2.77613,8.54406 -33.42151,25.81746 -36.19764,34.36152 -2.77613,8.54406 16.35532,43.79498 9.08731,49.0755 -7.26801,5.28052 -34.88168,-23.80771 -43.86543,-23.80771 -8.98376,0 -36.59743,29.08822 -43.865439,23.8077 -7.26801,-5.28051 11.863449,-40.53143 9.087309,-49.07549 -2.77613,-8.54406 -38.973769,-25.81746 -36.197636,-34.36152 2.776133,-8.54406 42.213686,-1.24209 49.481706,-6.52261 7.26801,-5.28052 12.5103,-45.0443 21.49406,-45.0443 z"
       inkscape:transform-center-y="-11.248848"
       transform="matrix(1.7415353,0,0,1.652795,487.60244,-179.80697)"
       inkscape:export-filename="/home/dada/dev/SynthQuiz/difficulty_10.png"
       inkscape:export-xdpi="35.738247"
       inkscape:export-ydpi="35.738247" />
    <path
       sodipodi:type="star"
       style="fill:#000000;fill-opacity:1"
       id="path3763-35"
       sodipodi:sides="5"
       sodipodi:cx="142.85715"
       sodipodi:cy="249.50504"
       sodipodi:r1="74.628334"
       sodipodi:r2="36.567883"
       sodipodi:arg1="-1.5707963"
       sodipodi:arg2="-0.9424778"
       inkscape:flatsided="false"
       inkscape:rounded="0.18"
       inkscape:randomized="0"
       d="m 142.85715,174.8767 c 8.98375,0 14.22605,39.76378 21.49406,45.0443 7.26801,5.28052 46.70557,-2.02145 49.4817,6.52261 2.77613,8.54406 -33.42151,25.81746 -36.19764,34.36152 -2.77613,8.54406 16.35532,43.79498 9.08731,49.0755 -7.26801,5.28052 -34.88168,-23.80771 -43.86543,-23.80771 -8.98376,0 -36.59743,29.08822 -43.865439,23.8077 -7.26801,-5.28051 11.863449,-40.53143 9.087309,-49.07549 -2.77613,-8.54406 -38.973769,-25.81746 -36.197636,-34.36152 2.776133,-8.54406 42.213686,-1.24209 49.481706,-6.52261 7.26801,-5.28052 12.5103,-45.0443 21.49406,-45.0443 z"
       inkscape:transform-center-y="-11.248848"
       transform="matrix(1.7415353,0,0,1.652795,767.60244,-179.80697)"
       inkscape:export-filename="/home/dada/dev/SynthQuiz/difficulty_10.png"
       inkscape:export-xdpi="35.738247"
       inkscape:export-ydpi="35.738247" />
    <path
       sodipodi:type="star"
       style="fill:#000000;fill-opacity:1"
       id="path3763-0"
       sodipodi:sides="5"
       sodipodi:cx="142.85715"
       sodipodi:cy="249.50504"
       sodipodi:r1="74.628334"
       sodipodi:r2="36.567883"
       sodipodi:arg1="-1.5707963"
       sodipodi:arg2="-0.9424778"
       inkscape:flatsided="false"
       inkscape:rounded="0.18"
       inkscape:randomized="0"
       d="m 142.85715,174.8767 c 8.98375,0 14.22605,39.76378 21.49406,45.0443 7.26801,5.28052 46.70557,-2.02145 49.4817,6.52261 2.77613,8.54406 -33.42151,25.81746 -36.19764,34.36152 -2.77613,8.54406 16.35532,43.79498 9.08731,49.0755 -7.26801,5.28052 -34.88168,-23.80771 -43.86543,-23.80771 -8.98376,0 -36.59743,29.08822 -43.865439,23.8077 -7.26801,-5.28051 11.863449,-40.53143 9.087309,-49.07549 -2.77613,-8.54406 -38.973769,-25.81746 -36.197636,-34.36152 2.776133,-8.54406 42.213686,-1.24209 49.481706,-6.52261 7.26801,-5.28052 12.5103,-45.0443 21.49406,-45.0443 z"
       inkscape:transform-center-y="-11.248848"
       transform="matrix(1.7415353,0,0,1.652795,1047.6024,-179.80697)"
       inkscape:export-filename="/home/dada/dev/SynthQuiz/difficulty_10.png"
       inkscape:export-xdpi="35.738247"
       inkscape:export-ydpi="35.738247" />
    <rect
       style="fill:#ffffff;fill-opacity:0.8627451;stroke:#ffffff;stroke-width:2.45635319;stroke-opacity:0.50196078"
       id="rect3836"
       width="1280"
       height="320"
       x="180"
       y="52.362183"
       inkscape:export-filename="/home/dada/dev/SynthQuiz/difficulty_10.png"
       inkscape:export-xdpi="35.738247"
       inkscape:export-ydpi="35.738247" />
  </g>
</svg>
